<?xml version="1.0" encoding="UTF-8"?><svg id="a" xmlns="http://www.w3.org/2000/svg" viewBox="0 0 70.86 52.19"><path d="M60.68,31.96c-.64,1.28-1.12,2.61-2.05,3.76-1.06,1.31-2.45,2.09-3.85,2.88-2.72,1.53-5.75,1.98-8.77,2.4-.68.09-1.37.13-2.05.15-.53.02-.59.32-.66.76-.13.9-.05,1.85-.82,2.58-.52.49-1.01.93-1.79.85-.26-.02-.54.02-.73.35.32.33.81.05,1.14.33.71.59.74,1.38.59,2.14-.19,1.03-.52,2.02-1,2.96-.38.75-.97,1.06-1.81,1.06-1.47,0-2.91-.28-4.37-.36-1.43-.54-3.02-.67-4.33-1.47-.87-.53-1.72-.8-2.73-.89-1.73-.14-2.69-1.2-2.81-2.83-.1-1.3.91-2.83,2.35-3.11,1.31-.25,1.69-1.31,2.32-2.16.29-.38-.1-.54-.38-.59-.5-.08-1.02-.07-1.52-.12-3.9-.36-7.62-1.36-10.8-3.67-2.52-1.83-4.59-4.14-5.27-7.35-.09-.44-.29-.53-.67-.49-1.16.1-2.21-.02-2.8-1.24-.15-.3-.56-.3-.89-.34-1.59-.21-2.37-1.43-1.9-2.96.05-.17.2-.33.02-.48-.06-.05-.22,0-.33.02-1.67.49-2.86-.63-2.45-2.41.14-.62,0-.96-.29-1.49-.56-1-.91-1.45.57-3.18-1.29.31-1.96-.3-2.39-1.27-.32-.73-.31-1.39.38-1.93.45-.35.64-.58.14-1.22-.78-1-.75-2.29-.21-3.43,1.42-3.01,3.51-5.4,6.51-6.97,1.7-.89,3.45-1.48,5.37-1.38,3.02.17,5.6,1.39,7.7,3.54.7.72,1.12.68,1.91.1,3.04-2.26,6.44-3.71,10.21-4.27,2.78-.41,5.53-.26,8.29.26,4.23.81,8.02,2.57,11.55,4.99.52.36,1.04.47,1.63.09,4.08-2.66,9.98-1.2,12.88,1.78,1.25,1.29,2.62,2.47,3.42,4.12.29.6.42,1.24.36,1.91-.03.28-.07.57-.33.7-.84.4-.76.79-.1,1.32.29.23.45.62.64.96.69,1.28.27,2.2-1.16,2.51-.44.1-1.03.04-.3.74.54.52.69,1.33.56,2.1-.1.62-.53.9-1.16.87-.55-.02-1.06-.07-.45.72.4.52.59,1.26.28,1.85-.36.68-1.08.79-1.81.5-.15-.06-.31-.08-.39.08-.04.08.02.23.08.32.76,1.25.26,2.66-1.26,3.19-.68.24-1.22.57-1.68,1.1-.44.51-1.07.79-1.7.6-.77-.24-.8.11-.78.67,0,.11-.06.23-.09.35Z" style="fill:#712914; stroke-width:0px;"/><path d="M31.98,1.39c3.68-.74,7.28-.28,10.82.77,3.09.91,5.98,2.28,8.61,4.14,1.66,1.18,2.75,2.9,3.82,4.6,3.36,5.39,4.84,11.29,4.64,17.63-.16,5.12-2.73,8.4-7.94,10.08-2.87.93-5.83,1.33-8.85,1.15-.67-.04-1.28-.25-1.91-.46-1.99-.65-3.9-.29-5.77.47-.36.15-.61.42-.45.85.19.49.53.32.89.19,1.59-.59,3.21-1.02,4.9-.41,1.12.41,1.45.94,1.33,2.22-.09.96-.62,1.53-1.69,1.65-1.48.17-2.94.03-4.31-.55-.59-.25-.9.02-1.09.4-.23.47.25.62.57.71.78.22,1.57.4,2.36.54.4.07.65.23.79.61.08.22.28.41.03.65-.18.18-.38.13-.58.06-.17-.06-.36-.08-.51-.17-.45-.25-.77-.13-.91.33-.15.49.21.63.58.83,1.03.52,1.9.25,2.74-.4.06-.01.15-.02.16,0,.31.79-.4,2.64-1.18,3.11-.25.05-.49.04-.74.04-.91-.13-1.79-.38-2.67-.63-1.09-.53-2.24-.93-3.17-1.77-1.24-1.12-1.87-2.43-1.41-4.12.11-.53.28-1.04.58-1.49.21-.27.32-.58.39-.91.34-.74.89-1.33,1.45-1.91.14-.11.29-.21.46-.33-.21-.09-.4,0-.59-.02-.18,0-.36,0-.54,0-2.57-.31-5.07-.95-7.52-1.77-.09-.02-.17-.06-.26-.1-.23-.12-.44-.28-.7-.35-.99-.29-1.9-.76-2.78-1.29-1.23-.96-2.44-1.93-3.5-3.09-.12-.13-.21-.27-.3-.42-.49-.99-1.04-1.94-1.4-2.99-.04-.14-.07-.28-.09-.42-.41-2.16-.38-4.32-.13-6.51.23-2.05.87-3.96,1.55-5.87.14-.69.58-1.24.83-1.88.2-.38.32-.81.55-1.18,2.49-4.55,6.15-8,10.42-10.84.77-.51,1.62-.88,2.51-1.14Z" style="fill:#d1cad1; stroke-width:0px;"/><path d="M16.5,28.93c0,.12,0,.24.01.36-.08,1.44-.08,1.46-1.71,1.48-.58,0-.85.1-.59.76.22.57.37.79.83.17.38-.5.93-.64,1.36-.08.42.55,1.09.21,1.55.56.06.12.13.23.19.35.38.72,1.11,1.24,1.2,2.15.03.35.43.37.71.43.52.11,1.05.2,1.51.5l2.88,1.27c.22.05.2.48.54.35.06,0,.12,0,.17,0,.23.42-.08.52-.37.63-.24.09-.53.05-.85.4.99-.3,1.77-.17,2.42.49.16.16.42.23.57.05.43-.53.98-.35,1.39-.14.87.44,1.88.36,2.73.78.77.38,1.36.33,1.85-.41h.54c.19.2.4.4.18.7-.55.54-1.02,1.16-1.44,1.81-.27.24-.18.62-.36.9-.24.46-.44.93-.54,1.44-.24.42-.58.68-1.09.66-.34-.01-.6.06-.59.48,0,1.39.74,2.44,1.66,3.36.42.42,1.09.24,1.63.39.92.25,1.8.62,2.73.87.93.02,1.78.46,2.69.55.24.19.48.19.72,0,.5-.08.46-.54.61-.86.31-.65.49-1.33.44-2.06.51-.25.57.1.56.45-.04,1.13-.49,2.15-1.01,3.13-.21.4-.63.26-.98.25-2.42-.08-4.75-.61-7.03-1.4-3.25-1.12-4.06-3.67-2.13-6.61.43-.65.93-1.24,1.41-1.86.22-.28.55-.52.36-.94-.18-.4-.56-.4-.92-.42-2.79-.17-5.55-.5-8.22-1.39-3.2-1.05-6.03-2.64-8.02-5.45-1.99-2.81-2.66-5.88-1.75-9.27,1.28-4.77,3.58-9.05,6.17-13.19.48-.76.46-1.39.09-2.07-.64-1.19-1.43-2.29-2.39-3.24-.87-.85-2.06-.72-2.69.32-.21.35-.42.24-.67.22-1.26-.11-1.39-.04-1.69,1.21-.08.34-.26.32-.51.33-1.45.06-1.75.53-1.04,1.74.19.33.15.41-.12.6-5.11,3.71-5.1,10.05.1,13.59,1.09.74,1.64,1.39,1.23,2.69-.12.38-.02.84-.05,1.25-.02.32.27.73-.3.88-.5.14-1.09.19-1.3-.29-.45-1.06-1.3-1.21-2.28-1.37-1.07-.17-1.37-.79-1.12-1.93.23-1.06-.02-1.32-1.02-1.04-.53.15-.96-.06-1.27-.47-.35-.47-.21-.98.1-1.42.74-1.08.75-1.07-.42-1.7-1.05-.57-1.16-1.33-.26-2.13.28-.25.59-.45.47-.88-.14-.47-.53-.4-.89-.38-.92.07-1.37-.51-1.67-1.24-.29-.71.34-1.03.74-1.38.93-.83.96-.87-.07-1.61-.67-.48-.72-1.13-.56-1.84.39-1.73,1.39-3.09,2.63-4.3,2.3-2.24,4.83-4.01,8.23-4.1,3.29-.08,5.88,1.37,8.13,3.61.98.98.97.99,2.1.15,3-2.22,6.23-3.91,9.99-4.41-2.79,1.49-5.33,3.3-7.63,5.5-2.04,1.95-3.66,4.19-5.14,6.56-.07.06-.15.11-.24.09q-.93-.26-1.36.78c.32.22.77-.14,1.05.21.02.7-.68,1.12-.73,1.8-.24.21-.55.39-.78.09-.42-.55-.62-.2-.86.14-.46.67-.77,1.42-1.15,2.13.99.21,1.66,1.99,1.01,2.76-.36.43-.84.38-1.32.15-.22-.11-.26-.4-.5-.49-.38,1.32-1.03,2.55-1.34,3.88-.24,1.03-.59,2.1.46,2.99.42.35.5.88.12,1.27.9-.18,1.9-.37,2.92-.32Z" style="fill:#b6aeb5; stroke-width:0px;"/><path d="M58.84,5.18c2.92.08,5.27,1.42,7.31,3.4,1.18,1.15,2.27,2.39,3.08,3.84.39.69.33,1.24-.45,1.62-.55.27-.74.58-.18,1.12.42.41.81.88,1.03,1.45.35.88.17,1.28-.74,1.52-.06.01-.12,0-.18.02-1.29.34-1.35.51-.67,1.6.16.25.32.51.42.79.33.92.09,1.28-.89,1.34-1.13.07-1.26.34-.64,1.31.08.13.18.24.24.38.17.4.5.84.18,1.26-.29.38-.79.2-1.19.13-.42-.07-.84-.24-1.12.23-.28.48.17.68.4.97.26.33.36.76.13,1.09-.31.44-.6,1.12-1.27.99-.89-.17-1.25.27-1.58.94-.27.55-.67.82-1.3.42-.29-.18-.47-.35-.38-.7.01-.06.02-.12.02-.18.1-1.05-.17-2.12-.01-3.14.16-1.04,1.35-1.51,1.82-2.47.8-1.63,1.56-3.25,1.39-5.12-.18-2.03-1.11-3.7-2.58-5.08-.41-.38-.72-.66-.4-1.35.37-.77-.03-1.35-.89-1.47-.37-.05-.51-.14-.53-.53-.02-.62-.44-.95-1.02-.87-.46.06-.65-.09-.78-.47-.23-.63-.67-.69-1.22-.45-.14.06-.27.12-.41.18-1.36.63-1.34.61-2.3-.51-.39-.46-.38-.7.16-.99,1.42-.77,2.88-1.32,4.53-1.26Z" style="fill:#d1cad1; stroke-width:0px;"/><path d="M10.66,8.51q2.35.46,1.77-1.52c.27-.14.52-.02.77.06,1.52.5,1.67.4,1.68-1.14.71.12,1.04.69,1.4,1.17,1.63,2.14,1.61,2.14.26,4.44-2.04,3.49-3.88,7.08-5.06,10.97-.16.51-.33.45-.67.25-3.7-2.17-4.92-6.08-3.13-9.7.64-1.3,1.73-2.11,3.04-2.65.37-.15.89-.15.95-.69.05-.53-.45-.64-.77-.89-.06-.05-.1-.13-.25-.31Z" style="fill:#f6e7c0; stroke-width:0px;"/><path d="M56.97,9.05c0,1.33.19,1.45,1.64.91-.03.5-.65.99-.03,1.45.51.37.96-.15,1.51-.09-.03.44-.49.79-.28,1.25.19.43.6.65.93.96,3.15,2.91,3.25,6.59.22,10.14-.31-.42-.24-.91-.3-1.35-.47-3.25-1.44-6.35-2.86-9.31-.4-.83-1.02-1.55-1.46-2.36-.61-1.1-.59-1.12.64-1.6Z" style="fill:#fbe4c2; stroke-width:0px;"/><path d="M27.82,48.31c-1.1.1-1.89-.48-2.11-1.51-.22-1.02.2-1.76,1.18-2.11.32-.11.64-.21.52.32-.25,1.14-.1,2.24.41,3.3Z" style="fill:#bcadae; stroke-width:0px;"/><path d="M51.63,29.35c-.01,1.7-.18,3.33-1.22,4.78-1.25,1.73-3.05,2.48-5.03,2.82-1.74.3-3.51.48-5.26-.01-.34-.1-.53,0-.78.23-.39.35-.73.8-1.29.93-1.2.28-2.32-.82-2.15-2.17.06-.48.02-.82-.38-1.17-1.14-.99-1.73-2.27-1.83-3.78-.23-3.4.05-6.71,1.91-9.7,1.3-2.09,3.11-3.64,5.5-4.17,2.86-.63,5.14.83,7.06,2.72,2.63,2.6,3.4,5.95,3.48,9.52Z" style="fill:#761c1b; stroke-width:0px;"/><path d="M16.5,28.93c-1.17.49-2.46.26-3.67.63.22-.36.84-.25.79-.84-.03-.45-.34-.67-.65-.91-.3-.23-.42-.54-.43-.94-.04-1.53.48-2.93,1.07-4.3.17-.39.36-.75.37-1.18,0-.35.05-.66.44-.82.12.24.21.49.36.7.25.36.64.28.99.22.33-.06.37-.34.38-.63.01-.39-.03-.77-.14-1.15-.27-.94-.38-1-1.24-.44-.13-.76.55-1.15.71-1.74.13-.47.43-.93.75-1.32.27-.33.65-1.19,1.02-.02.12.39.47,0,.7.11-.35,1.36-1.03,2.61-1.23,4-.32,2.14-.8,4.27-.43,6.47.12.7.05,1.43.22,2.13Z" style="fill:#b5aeb5; stroke-width:0px;"/><path d="M24.87,23.95c-.14.83.52,1.16,1.04,1.51.8.54,1.68.63,2.55.16.7-.37,1.17-1.01,1.7-1.58.26-.28.47-.81.99-.35.41.36.72.87.37,1.34-1.05,1.4-2.34,2.54-4.2,2.55-1.7.01-3.02-.83-3.91-2.28-.3-.49-.46-1.03-.29-1.63.16-.54.43-.96,1.06-.86.6.1.82.54.71,1.14Z" style="fill:#752714; stroke-width:0px;"/><path d="M57.78,24.1c-.06,1.26-.42,2.44-1.64,2.96-1.27.54-2.52.24-3.6-.66-.29-.24-.49-.53-.62-.87-.23-.57-.27-1.19.33-1.51.61-.33.98.14,1.28.64.21.35.39.72.85.87.84.28,1.34.05,1.53-.82.08-.38.08-.78.16-1.15.12-.55.35-1.12.99-1.08.63.04.7.64.73,1.17,0,.15,0,.3,0,.45Z" style="fill:#732711; stroke-width:0px;"/><path d="M35.6,49.63c-1.06.14-1.95-.48-2.93-.7-.46-.11-.96.16-1.36-.18-.86-.72-1.47-1.61-1.82-2.67-.09-.27-.06-.58-.13-.88-.15-.64-.04-1.12.8-.89.5.14.72-.37,1.12-.44-.73,2.73,1.41,4.36,3.43,5.25.31.14.73.11.9.5Z" style="fill:#b5aeb5; stroke-width:0px;"/><path d="M32.89,39.02c-.36,1.06-.47,1.1-1.53.77-1.16-.35-2.34-.65-3.5-.99-.26-.08-.42-.3-.66.14-.22.41-.69.39-1.03-.03-.55-.68-1.24-.76-2.01-.47-.22.08-.47.25-.59-.11-.11-.32.2-.37.37-.52.36-.3,1.08.16,1.2-.6,2.55.74,5.09,1.49,7.74,1.8Z" style="fill:#b5aeb5; stroke-width:0px;"/><path d="M22.01,29.69c-.93-.1-1.87.11-2.77-.18-.23-.07-.52-.1-.5-.41.02-.31.27-.47.55-.49,1.78-.16,3.57-.3,5.35.03.26.05.58.13.6.45.03.36-.32.38-.57.45-.88.25-1.79.06-2.67.16Z" style="fill:#dd787f; stroke-width:0px;"/><path d="M17.94,32.17c-.67,0-1.35.27-1.85-.58-.24-.41-.74-.03-1,.35-.16.23-.26.63-.56.61-.33-.02-.35-.43-.45-.71q-.46-1.29.96-1.29c.21,0,.42-.02.63,0,.56.06.88-.06.58-.7-.14-.29.03-.44.27-.56.48.96.95,1.92,1.43,2.88Z" style="fill:#b5aeb5; stroke-width:0px;"/><path d="M56.07,28.9c-.27-.08-1,.29-1.1-.27-.11-.63.71-.56,1.14-.75.7-.32,1.47-.22,2.21-.19.29.01.7.09.73.4.04.37-.38.54-.69.59-.7.11-1.4.33-2.3.22Z" style="fill:#d87b86; stroke-width:0px;"/><path d="M21.55,35.59c-.73-.12-1.47-.24-2.2-.38-.1-.02-.28-.13-.27-.18.16-.98-.68-1.54-.95-2.33-.02-.05,0-.12,0-.18,1.14,1.02,2.28,2.05,3.42,3.07Z" style="fill:#b5aeb5; stroke-width:0px;"/><path d="M18.66,14.53c-.06,0-.12.02-.18,0-.4-.13-1.04.54-1.16-.05-.1-.49.4-1.07.82-1.5.17-.18.28-.14.41.06.15.23.35.41.65.42-.22.34-.18.81-.54,1.08Z" style="fill:#b5aeb5; stroke-width:0px;"/><path d="M33.61,39.72c-.06-.23-.12-.47-.18-.7.25.03.52-.09.77.08-.1.31-.33.48-.59.62Z" style="fill:#b5aeb5; stroke-width:0px;"/><path d="M31.81,42.43c.08-.32-.22-.78.36-.9.01.35-.08.67-.36.9Z" style="fill:#b5aeb5; stroke-width:0px;"/><path d="M39.01,50.18c-.24.42-.48.42-.72,0,.24,0,.48,0,.72,0Z" style="fill:#b5aeb5; stroke-width:0px;"/><path d="M24.97,37.21c-.4.22-.41-.15-.54-.35.26,0,.44.12.54.35Z" style="fill:#b5aeb5; stroke-width:0px;"/><path d="M17.94,34.9c.03.28-.08.5-.37.6-.35.12-.38-.2-.49-.38-.25-.42-.58-.75-.99-1-.16-.1-.31-.22-.23-.43.07-.18.25-.23.43-.26.85-.15,1.67.57,1.65,1.46Z" style="fill:#b5aeb5; stroke-width:0px;"/><path d="M22.44,37.54c-.38-.18-.77-.17-1.2-.03-.43.15-.63-.25-.85-.51-.13-.15-.12-.35.01-.49.26-.29.61-.26.91-.12.42.2.83.3,1.29.29.3,0,.56.13.52.47-.04.39-.34.44-.69.4Z" style="fill:#b5aeb5; stroke-width:0px;"/><path d="M18.59,35.81c-.05.15-.13.27-.3.26-.16-.01-.27-.12-.27-.28,0-.16.14-.17.25-.18.15,0,.29.01.32.21Z" style="fill:#b5aeb5; stroke-width:0px;"/><path d="M50.75,28.27c0,.09,0,.18,0,.27-.01.45.04,1.02-.58,1.03-.63,0-.57-.57-.57-1.02,0-1.87-.7-3.57-1.29-5.29-.04-.11-.1-.22-.14-.33-.12-.37-.29-.81.22-1,.53-.2.73.21.89.63.47,1.2.89,2.41,1.17,3.67.15.67.27,1.35.3,2.04Z" style="fill:#f2eaec; stroke-width:0px;"/><path d="M37.62,37.58c-.73,0-1.42-.87-1.3-1.6.06-.36.22-.36.48-.24.4.19.8.37,1.2.56.27.13.7.08.72.51.02.27-.74.77-1.1.77Z" style="fill:#d44f47; stroke-width:0px;"/><path d="M50.08,29.98c.44,0,.59.3.6.64,0,.39-.31.59-.65.59-.32,0-.54-.25-.54-.59,0-.38.24-.58.59-.65Z" style="fill:#df9d98; stroke-width:0px;"/></svg>