<?xml version="1.0" encoding="UTF-8"?><svg id="a" xmlns="http://www.w3.org/2000/svg" viewBox="0 0 7287.21 2570.35"><path d="M493.57,1726.53c0,8.45,0,16.91,0,25.36,0,181.76-1.98,363.56,1.14,545.27,1,58.5-14.48,111.02-36.89,161.91-28.3,64.28-88.71,84.68-151.74,100.29-73.73,18.26-141.27-2.48-205.61-33.11-61.15-29.11-80.95-88.66-93.57-150.38-4.76-23.28-5.92-46.82-5.91-70.61.22-351.23,1.39-702.48-.97-1053.7-.43-64.65,15.73-122.82,39.6-180.34,18.03-43.44,52.65-71.8,94.84-90.47,167.46-74.08,344.98-24.42,438.14,137.9,133.02,231.75,268.71,461.98,403.28,692.84,5.72,9.81,11.62,19.52,17.47,29.32,9.31-3.2,5.36-10.55,5.36-15.63-.15-209.84.4-419.69-1.31-629.52-1.22-149.14,118.02-269.54,265.66-248.11,134.14,19.46,199.17,52.52,225.23,210.09,4.04,24.43,4.8,48.78,4.8,73.37,0,372.31.05,744.61.28,1116.92.05,78.3-61.66,164.08-141.01,191.48-183.81,63.47-345.8,9.54-452.14-162.88-128.86-208.92-257.32-418.07-385.95-627.12-4.97-8.08-9.97-16.14-14.96-24.21-1.91.44-3.82.89-5.72,1.33Z" style="fill:#549b35; stroke-width:0px;"/><path d="M4891.65,1616.26c-36.82-196.9-124.48-363.04-287.75-485.28-147.5-110.43-306.68-189.82-495.25-195.54-13.7,3.21-15.16,15.96-19.52,25.96-8.74,20.1-17.7,39.71-30.38,58.02-50.74,73.23-125.88,110.66-206.2,137.82-68.15,23.05-139.67,33.69-211.47,40.11-43.1,3.85-43.94,3.48-50.4,47.07-3.76,25.37-11.58,47.19-32.68,63.44-12.72,9.79-27.72,9.92-42.02,13.49-7.81,1.95-16.03,5.39-16.69,14.51-.65,8.87,7.95,10.09,14.38,12.71,26.9,10.96,34.16,20.73,32.16,49.59-2.4,34.59-14.34,66.73-30.64,97.07-8.55,15.93-23.07,23.55-41.23,23.72-21.9.21-43.7-.87-65.59-2.33-21.76-1.46-44.14-13.36-65.94.27-44.97,130.72-51.3,263.62-26.86,399.41,38.03,211.35,130.1,386.04,318.95,502.6,180.73,111.56,369.93,177.98,586.17,141.28,144.48-24.52,281.88-68.25,389.3-170.18,221.15-209.88,340.31-460.26,281.68-773.75ZM4353.82,2025.35c-44.32,83.23-107,147.12-203.33,163.87-112.52,19.57-201.46-23.86-264.46-117.28-74.42-110.34-91.34-235.14-82.04-364.61,6.29-87.6,30.8-170.49,75.81-246.38,102.85-173.43,350.17-172.64,452.32,1.13,49.51,84.21,79.9,199.58,79.37,301.39-3.56,90.75-14.17,180.18-57.68,261.88Z" style="fill:#549b35; stroke-width:0px;"/><path d="M5770.89,949.82c166.59,5.11,326.3,40.42,477.15,112.08,57.2,27.17,105.51,66.21,137.57,122.27,59.91,104.76,17.42,231.59-94.76,277.75-85.9,35.34-187.22,25.89-262-50.03-65.02-66.02-140.3-116.72-237.22-123.2-36.11-2.41-72-.16-106.52,11.64-68.87,23.55-86.7,95.66-36.3,148.48,34.67,36.34,78.71,57.38,125.66,73.5,129.89,44.6,260.66,86.92,389.02,135.59,100.86,38.24,188.63,98.73,247.11,192.07,105.23,167.96,106.44,359.24-46.46,520.11-102.57,107.92-229.87,160.36-372.46,183.05-237.39,37.78-460.05-13.06-671.45-119.62-77.67-39.15-134.56-100.11-156.65-188.13-27.52-109.67,69.99-238.05,182.72-240.25,20.03-.39,37.79,6.18,55.27,14.56,50.98,24.43,95.53,58.21,138.94,94,62.48,51.51,127.53,97.8,209.19,116.32,61.93,14.05,120.39,4.02,177.62-17.03,43.53-16.01,64.08-52.46,71.2-96.72,3.82-23.74-7.04-42.86-23.04-58.97-31.51-31.75-69.87-52.2-111.96-66.46-124.27-42.08-250.34-78.99-372.52-127.05-72.33-28.45-137.12-70.53-197.67-118.84-140.38-112.01-183.21-290.02-107.86-453.9,86.62-188.4,234.69-296.1,438.7-328.51,48.58-7.72,97.31-13.19,146.71-12.71Z" style="fill:#549b35; stroke-width:0px;"/><path d="M3155.62,2336.02c-15.17-50.25-30.63-100.45-47.62-150.1-110.75-323.65-229.54-644.45-343.7-966.9-18.7-52.81-36.66-105.81-64.9-154.73-35.07-60.75-81.83-105.06-151.13-126.25-40.89-12.51-81.36-9.84-106.07-10.68-63.58-.97-110.66-1.16-157.28,10.85-97.83,25.2-142.69,102.07-174.42,185.89-58.83,155.41-111.28,313.22-166.77,469.9-83.81,236.69-168.18,473.18-251.81,709.93-26.84,75.97-10.35,140.06,51.18,191.65,78.66,65.95,168.94,79.79,266.52,52.66,57.91-16.1,99.68-48.87,115.24-110.2,7.31-28.8,18.94-56.48,27.31-85.05,4.34-14.83,11.4-20.26,27.57-20.19,160.66.66,321.32.72,481.98-.06,16.91-.08,22.69,6.78,26.69,20.97,10.23,36.21,21.34,72.16,32.12,108.21,14.53,48.6,46.41,81.21,95.46,91.9,98.81,21.54,193.55,10.82,279.23-47.01,64.31-43.41,82.76-96.69,60.39-170.78ZM2572.55,2016.24c-100.05.23-200.1.26-300.15.03-9.76-.02-23.77,6-17.27-16.15,53.94-183.83,106.82-367.96,160.07-551.99.44-1.53,1.61-2.85,4.53-7.83,56.96,192.11,113.12,381.5,169.07,570.2-3.85,9.03-10.96,5.74-16.24,5.75Z" style="fill:#549b35; stroke-width:0px;"/><path d="M7285.91,1752.98c0,177.36-2.17,354.76,1.23,532.06,1.12,58.47-13.95,110.82-35.02,162.48-27.03,66.25-86.34,89.45-150.17,106.6-74.67,20.06-142.85-.9-207.52-33.14-63.36-31.59-82.25-94.39-94.91-158.62-5.27-26.76-6.21-53.88-6.19-81.18.22-341.55,1.17-683.11-.76-1024.65-.37-64.85,13.11-125.3,34.89-184.57,27.21-74.04,89.85-102.37,160.9-119.96,76.07-18.83,142.86,7.35,204.91,44.17,56.07,33.27,72.72,94.06,85.42,154.2,5.63,26.65,7.41,53.73,7.37,81.07-.28,173.85-.14,347.7-.14,521.55Z" style="fill:#549b35; stroke-width:0px;"/><path d="M4108.64,935.45c-18.71,37.35-32.78,76.43-60.1,110.07-31.1,38.3-71.61,61.17-112.57,84.27-79.52,44.85-168.15,57.93-256.76,70.15-19.87,2.74-40.05,3.67-60.12,4.37-15.43.54-17.36,9.44-19.26,22.33-3.86,26.21-1.58,54.23-23.97,75.52-15.21,14.46-29.57,27.08-52.3,24.99-7.64-.7-15.75.68-21.5,10.2,9.23,9.59,23.57,1.48,33.41,9.63,20.8,17.21,21.53,40.3,17.36,62.69-5.58,30.02-15.33,59.23-29.32,86.77-11.14,21.92-28.24,30.96-53.09,31.02-43.07.09-85.26-8.31-128.01-10.56-41.82-15.79-88.33-19.69-126.64-43.04-25.56-15.58-50.2-23.55-79.8-26.01-50.64-4.21-78.73-35.08-82.33-82.71-2.88-38.15,26.72-82.94,68.65-91.06,38.46-7.45,49.35-38.22,67.97-63.1,8.38-11.19-2.86-15.89-11.27-17.16-14.71-2.21-29.76-2.02-44.61-3.4-113.99-10.55-222.96-39.66-316.14-107.49-73.77-53.7-134.4-121.06-154.13-215.17-2.7-12.89-8.44-15.43-19.65-14.46-33.9,2.93-64.67-.44-82.06-36.41-4.26-8.82-16.3-8.72-26.03-10-46.46-6.13-69.37-41.93-55.56-86.67,1.51-4.89,5.99-9.7.68-14.03-1.82-1.49-6.46-.26-9.54.64-48.96,14.44-83.83-18.33-71.67-70.46,4.21-18.03.23-28.22-8.39-43.6-16.37-29.24-26.62-42.45,16.82-92.98-37.74,9.16-57.42-8.67-70.06-37.15-9.45-21.29-9.01-40.74,11.17-56.55,13.11-10.28,18.86-17,4.1-35.83-22.89-29.21-21.87-67.12-6.14-100.52,41.47-88.08,102.65-158.1,190.43-204.11,49.72-26.07,100.87-43.39,157.15-40.32,88.49,4.83,163.97,40.58,225.38,103.64,20.42,20.98,32.67,20.03,55.76,2.82,88.84-66.26,188.35-108.69,298.78-124.87,81.5-11.94,161.81-7.69,242.56,7.72,123.78,23.63,234.82,75.26,337.91,146.04,15.25,10.47,30.45,13.87,47.69,2.61,119.36-77.94,292.18-34.98,376.88,52.1,36.64,37.66,76.57,72.19,100.18,120.49,8.63,17.66,12.29,36.27,10.42,56.04-.78,8.27-1.99,16.71-9.74,20.36-24.6,11.59-22.18,23.07-2.88,38.63,8.35,6.74,13.31,18.15,18.67,28.06,20.32,37.59,7.76,64.31-33.97,73.54-12.84,2.84-30.15,1.25-8.86,21.7,15.81,15.19,20.07,38.9,16.3,61.5-3.05,18.27-15.42,26.37-34.06,25.57-16.03-.7-30.93-2.05-13.13,21.13,11.61,15.11,17.38,36.85,8.29,54.02-10.57,19.96-31.53,23.22-52.96,14.67-4.43-1.77-9.18-2.31-11.32,2.35-1.06,2.31.61,6.62,2.24,9.3,22.28,36.66,7.57,77.86-36.75,93.27-19.96,6.94-35.65,16.54-49.13,32.11-12.94,14.94-31.35,23.17-49.63,17.56-22.41-6.89-23.43,3.32-22.79,19.64.13,3.35-1.65,6.77-2.54,10.16Z" style="fill:#712914; stroke-width:0px;"/><path d="M3268.64,40.61c107.61-21.61,212.99-8.14,316.65,22.45,90.42,26.68,175.15,66.8,252.12,121.24,48.67,34.42,80.61,84.73,111.67,134.53,98.44,157.81,141.7,330.53,135.87,515.81-4.71,149.76-79.89,245.76-232.37,295.09-84,27.17-170.5,39.02-259.03,33.54-19.49-1.21-37.57-7.4-55.78-13.39-58.25-19.15-114.11-8.58-168.91,13.7-10.6,4.31-17.87,12.37-13.05,24.87,5.57,14.44,15.65,9.3,26.08,5.43,46.65-17.31,93.86-29.86,143.5-11.98,32.92,11.86,42.34,27.63,38.95,64.94-2.57,28.24-18.06,44.65-49.43,48.22-43.19,4.91-86.13.92-126.23-16.17-17.38-7.41-26.45.68-32.01,11.83-6.81,13.67,7.32,18.28,16.75,20.92,22.75,6.35,45.86,11.69,69.11,15.86,11.64,2.09,19.12,6.65,23,17.86,2.21,6.38,8.08,12.09,1.01,18.94-5.34,5.17-11.1,3.8-17.1,1.71-4.96-1.73-10.44-2.46-14.91-5-13.05-7.42-22.43-3.71-26.63,9.69-4.48,14.32,6,18.55,17.11,24.21,30.12,15.35,55.64,7.39,80.06-11.8,1.83-.43,4.4-.73,4.77.23,8.99,23.22-11.71,77.29-34.6,90.94-7.19,1.39-14.46,1.13-21.72,1.12-26.64-3.73-52.4-11.26-78.27-18.37-31.79-15.65-65.67-27.18-92.8-51.69-36.36-32.86-54.61-71.15-41.4-120.65,3.21-15.48,8.06-30.35,16.99-43.6,6.07-7.92,9.22-17.1,11.39-26.72,9.95-21.78,25.97-38.95,42.37-55.85,4.11-3.2,8.47-6.06,13.53-9.61-6.01-2.71-11.76.02-17.26-.59-5.25.24-10.48.25-15.74-.02-75.3-9.15-148.32-27.92-220.14-51.69-2.58-.67-5.07-1.66-7.47-2.84-6.68-3.63-12.84-8.32-20.37-10.32-29.07-8.53-55.66-22.38-81.5-37.86-36.02-27.98-71.53-56.57-102.46-90.36-3.39-3.81-6.26-7.99-8.8-12.41-14.21-28.85-30.58-56.69-40.87-87.41-1.3-4.02-2.02-8.14-2.65-12.3-11.93-63.32-11.04-126.51-3.74-190.51,6.84-59.91,25.38-115.93,45.49-171.89,3.96-20.16,16.92-36.33,24.38-54.95,5.97-11.26,9.44-23.71,16.08-34.68,73-133.21,179.89-234.03,304.84-317.22,22.41-14.92,47.41-25.65,73.48-33.27Z" style="fill:#d1cad1; stroke-width:0px;"/><path d="M2815.46,846.63c.12,3.49.25,6.97.37,10.46-2.48,42.19-2.48,42.69-50.04,43.34-16.91.23-24.94,2.91-17.41,22.31,6.44,16.58,10.72,23.12,24.29,4.92,10.99-14.72,27.21-18.76,39.69-2.44,12.41,16.2,32.04,6.07,45.25,16.26,1.87,3.4,3.75,6.8,5.62,10.2,11.25,21.1,32.62,36.25,35,62.82.93,10.36,12.51,10.76,20.79,12.52,15.32,3.25,30.74,5.95,44.29,14.52,28.08,12.37,56.16,24.74,84.24,37.12,6.56,1.47,5.99,14.04,15.94,10.25,1.7.03,3.39.11,5.08.23,6.79,12.19-2.26,15.31-10.77,18.37-7.13,2.56-15.61,1.51-24.84,11.79,28.97-8.73,51.86-5.11,70.84,14.24,4.59,4.68,12.28,6.85,16.63,1.54,12.62-15.4,28.67-10.22,40.74-4.13,25.59,12.91,55.06,10.57,79.98,22.89,22.49,11.12,39.84,9.52,54-11.93l15.82.04c5.67,5.85,11.8,11.58,5.25,20.55-16.24,15.93-29.73,34.04-42.17,52.99-7.89,7.04-5.2,18.29-10.5,26.36-7.05,13.4-12.82,27.29-15.93,42.18-7.03,12.37-17.09,19.84-31.87,19.33-9.94-.34-17.42,1.78-17.41,14.01.03,40.8,21.61,71.43,48.55,98.46,12.3,12.34,31.81,6.94,47.8,11.27,27.02,7.33,52.76,18.27,79.75,25.4,27.26.58,52,13.52,78.86,16.11,6.96,5.7,13.94,5.63,20.94.07,14.71-2.2,13.54-15.69,17.99-25.22,8.93-19.14,14.23-39.02,12.83-60.34,14.98-7.37,16.61,3,16.25,13.24-1.14,33.22-14.22,62.89-29.52,91.56-6.25,11.71-18.53,7.73-28.68,7.38-70.76-2.44-139.08-17.87-205.67-40.91-95.01-32.88-118.91-107.35-62.32-193.57,12.44-18.95,27.25-36.36,41.22-54.3,6.36-8.17,16.01-15.17,10.56-27.38-5.18-11.61-16.25-11.65-26.96-12.29-81.6-4.87-162.3-14.77-240.44-40.55-93.54-30.86-176.6-77.37-234.8-159.46-58.31-82.24-77.89-172.1-51.27-271.33,37.42-139.48,104.78-264.84,180.62-386.01,13.96-22.31,13.55-40.59,2.76-60.67-18.74-34.89-41.71-67.04-70.07-94.86-25.38-24.9-60.33-21.16-78.72,9.4-6.13,10.19-12.42,7.08-19.67,6.44-36.94-3.29-40.75-1.1-49.57,35.54-2.37,9.85-7.59,9.26-15.03,9.57-42.4,1.76-51.16,15.52-30.52,50.85,5.63,9.64,4.4,11.92-3.4,17.58-149.53,108.54-149.37,294.14,2.92,397.74,31.94,21.73,48.02,40.6,36.12,78.74-3.52,11.27-.63,24.44-1.34,36.7-.53,9.23,7.97,21.34-8.72,25.86-14.66,3.97-32,5.54-37.94-8.39-13.26-31.15-37.97-35.56-66.71-40.05-31.39-4.91-40.02-23.14-32.71-56.53,6.81-31.11-.49-38.59-29.8-30.58-15.61,4.26-28.15-1.79-37.02-13.75-10.31-13.89-6.09-28.57,2.8-41.53,21.61-31.49,21.84-31.34-12.27-49.8-30.78-16.66-33.8-39.02-7.54-62.27,8.2-7.26,17.24-13.24,13.62-25.73-3.99-13.73-15.65-11.85-26.1-11.05-26.8,2.04-40.13-14.86-48.81-36.14-8.42-20.66,9.95-30.04,21.56-40.41,27.18-24.26,27.95-25.46-2.12-47.02-19.69-14.12-21.21-32.94-16.45-53.86,11.51-50.54,40.62-90.46,76.96-125.82,67.44-65.6,141.49-117.44,240.75-119.88,96.32-2.37,172.09,40.17,237.79,105.74,28.8,28.74,28.43,28.83,61.46,4.4,87.76-64.91,182.34-114.45,292.32-129.08-81.73,43.62-155.98,96.69-223.38,161.08-59.81,57.15-107.1,122.56-150.41,191.85-1.97,1.8-4.49,3.23-6.93,2.55q-27.19-7.62-39.66,22.78c9.31,6.3,22.51-4.11,30.64,6.23.47,20.6-19.83,32.83-21.23,52.68-7.13,6.15-16.06,11.41-22.91,2.52-12.32-15.96-18.18-5.87-25.15,4.14-13.6,19.53-22.51,41.63-33.76,62.34,28.93,6.2,48.57,58.31,29.45,80.75-10.66,12.51-24.65,11.08-38.5,4.43-6.45-3.1-7.5-11.65-14.51-14.25-11.11,38.76-30.17,74.55-39.09,113.57-6.92,30.26-17.36,61.5,13.36,87.48,12.23,10.34,14.71,25.7,3.45,37.24,26.42-5.32,55.49-10.73,85.43-9.38Z" style="fill:#b6aeb5; stroke-width:0px;"/><path d="M4054.78,151.57c85.51,2.39,154.16,41.61,213.8,99.53,34.66,33.65,66.29,69.94,90.2,112.34,11.46,20.33,9.6,36.32-13.07,47.53-16.1,7.96-21.62,17-5.38,32.75,12.26,11.89,23.59,25.78,30.26,42.52,10.3,25.86,4.89,37.59-21.55,44.42-1.67.43-3.56.02-5.23.46-37.64,9.81-39.65,14.83-19.6,46.69,4.65,7.39,9.26,15.06,12.21,23.21,9.79,27.03,2.65,37.36-26.08,39.16-32.97,2.07-36.86,9.98-18.78,38.21,2.36,3.69,5.26,7.16,6.96,11.14,5.06,11.84,14.76,24.61,5.4,36.8-8.62,11.21-23.18,5.72-34.78,3.79-12.35-2.05-24.48-7.1-32.68,6.77-8.32,14.06,4.97,19.92,11.62,28.37,7.69,9.79,10.56,22.25,3.69,31.95-9.2,12.98-17.57,32.86-37.07,29.04-25.91-5.07-36.67,7.82-46.35,27.53-7.98,16.24-19.49,24.11-38.1,12.37-8.5-5.37-13.64-10.29-10.98-20.6.44-1.69.51-3.47.68-5.22,2.96-30.74-4.84-62.1-.31-91.81,4.64-30.48,39.46-44.3,53.18-72.2,23.39-47.59,45.69-95.19,40.72-149.93-5.38-59.29-32.5-108.3-75.49-148.71-11.95-11.23-21.19-19.39-11.57-39.53,10.83-22.67-.97-39.43-25.96-43.15-10.76-1.6-15.04-3.97-15.39-15.46-.57-18.22-13.02-27.73-29.71-25.56-13.47,1.75-18.97-2.72-22.94-13.73-6.66-18.5-19.63-20.33-35.82-13.14-4.01,1.78-8.04,3.5-12.02,5.33-39.93,18.34-39.3,17.82-67.18-14.94-11.41-13.41-11.12-20.52,4.69-29.1,41.46-22.51,84.42-38.5,132.67-36.83Z" style="fill:#d1cad1; stroke-width:0px;"/><path d="M2644.69,249.13q68.83,13.56,51.76-44.49c7.92-4.14,15.16-.56,22.54,1.86,44.6,14.64,48.95,11.76,49.11-33.49,20.7,3.45,30.3,20.34,40.95,34.3,47.68,62.51,47.13,62.65,7.68,130.06-59.82,102.22-113.57,207.35-148.16,321.13-4.56,15-9.56,13.22-19.53,7.36-108.32-63.6-143.9-177.85-91.46-283.91,18.82-38.07,50.6-61.81,89.06-77.62,10.92-4.49,26.1-4.33,27.73-20.09,1.61-15.45-13.24-18.77-22.48-26.06-1.85-1.46-3.05-3.75-7.21-9.06Z" style="fill:#f6e7c0; stroke-width:0px;"/><path d="M3999.86,264.98c.14,39.04,5.59,42.33,47.85,26.71-.88,14.66-19.04,29.1-.96,42.38,14.79,10.86,28.2-4.43,44.32-2.53-.82,12.98-14.28,23.2-8.24,36.54,5.65,12.5,17.69,19.15,27.27,27.98,92.26,85.12,95.1,192.86,6.53,296.64-9.04-12.18-7.02-26.65-8.88-39.43-13.85-95.21-42.2-185.97-83.8-272.42-11.66-24.24-29.71-45.32-42.87-68.94-17.94-32.2-17.14-32.65,18.78-46.93Z" style="fill:#fbe4c2; stroke-width:0px;"/><path d="M3147.01,1413.85c-32.28,2.98-55.46-14.03-61.87-44.07-6.36-29.82,5.9-51.62,34.59-61.87,9.34-3.34,18.75-6.16,15.32,9.42-7.36,33.51-2.97,65.5,11.95,96.52Z" style="fill:#bcadae; stroke-width:0px;"/><path d="M3843.78,858.99c-.35,49.62-5.16,97.48-35.73,139.75-36.64,50.67-89.33,72.51-147.34,82.62-50.89,8.86-102.76,13.92-153.92-.4-9.97-2.79-15.62.16-22.91,6.72-11.49,10.32-21.48,23.37-37.8,27.17-35.21,8.21-68.01-24.07-62.92-63.51,1.83-14.18.58-24.08-11.1-34.24-33.27-28.94-50.53-66.33-53.5-110.49-6.7-99.64,1.35-196.32,55.86-283.85,38.11-61.19,90.89-106.59,160.96-122.14,83.69-18.57,150.44,24.16,206.67,79.72,76.89,75.98,99.65,174.15,101.73,278.65Z" style="fill:#761c1b; stroke-width:0px;"/><path d="M2815.46,846.63c-34.33,14.44-72.02,7.73-107.51,18.57,6.55-10.58,24.57-7.42,23.24-24.53-1.02-13.11-10.04-19.65-19.09-26.68-8.85-6.87-12.33-15.75-12.63-27.37-1.15-44.92,14.1-85.66,31.31-125.76,4.86-11.32,10.67-22.04,10.97-34.51.24-10.14,1.33-19.33,12.9-23.9,3.46,6.97,6.15,14.34,10.44,20.62,7.3,10.67,18.68,8.23,28.86,6.36,9.6-1.77,10.95-10,11.17-18.39.29-11.45-1.01-22.44-4.24-33.64-7.93-27.44-11.1-29.15-36.17-12.93-3.81-22.12,16.04-33.54,20.69-50.95,3.71-13.89,12.64-27.19,21.97-38.51,7.85-9.51,19.13-34.68,29.99-.51,3.65,11.48,13.86-.27,20.34,3.29-10.1,39.67-30.11,76.47-36.11,117.15-9.24,62.69-23.39,125.07-12.49,189.38,3.46,20.44,1.39,41.8,6.37,62.31Z" style="fill:#b5aeb5; stroke-width:0px;"/><path d="M3060.67,700.78c-3.97,24.25,15.13,33.82,30.38,44.1,23.28,15.7,49.07,18.38,74.62,4.77,20.47-10.91,34.22-29.49,49.62-46.15,7.6-8.22,13.85-23.62,28.92-10.32,11.91,10.52,21.16,25.33,10.78,39.25-30.63,41.08-68.56,74.26-123.04,74.59-49.89.3-88.43-24.25-114.5-66.85-8.78-14.34-13.55-30.18-8.49-47.57,4.59-15.8,12.66-28.23,31-25.06,17.7,3.06,24.05,15.7,20.71,33.25Z" style="fill:#752714; stroke-width:0px;"/><path d="M4023.54,705.18c-1.68,36.86-12.33,71.52-48,86.72-37.07,15.79-73.87,7.12-105.47-19.36-8.34-6.99-14.29-15.57-18.2-25.35-6.7-16.74-7.78-34.84,9.64-44.22,17.85-9.61,28.7,4.11,37.34,18.79,6.11,10.38,11.52,21.1,24.92,25.54,24.65,8.18,39.12,1.39,44.78-24.05,2.46-11.06,2.3-22.68,4.63-33.78,3.37-16.1,10.12-32.89,29.05-31.59,18.46,1.26,20.39,18.8,21.28,34.17.25,4.37.04,8.76.04,13.14Z" style="fill:#732711; stroke-width:0px;"/><path d="M3374.47,1452.48c-31.03,4.2-57.06-14.02-85.66-20.59-13.56-3.11-28.03,4.69-39.92-5.19-25.19-20.94-43.16-47.11-53.41-78.04-2.61-7.89-1.8-17.04-3.89-25.68-4.5-18.65-1.07-32.91,23.34-26.16,14.67,4.06,20.98-10.75,32.71-12.81-21.38,79.99,41.39,127.65,100.47,153.7,9.17,4.05,21.34,3.18,26.35,14.77Z" style="fill:#b5aeb5; stroke-width:0px;"/><path d="M3295.17,1141.9c-10.63,31.14-13.69,32.1-44.9,22.58-33.95-10.35-68.4-19.04-102.45-29.06-7.7-2.26-12.34-8.85-19.28,4.03-6.55,12.14-20.22,11.35-30.05-.94-15.97-19.97-36.25-22.11-58.82-13.8-6.54,2.41-13.65,7.18-17.13-3.08-3.15-9.26,5.71-10.74,10.84-15.09,10.41-8.85,31.66,4.63,35.21-17.41,74.58,21.64,149.07,43.7,226.59,52.77Z" style="fill:#b5aeb5; stroke-width:0px;"/><path d="M2976.81,868.81c-27.22-2.89-54.62,3.22-81.19-5.4-6.65-2.16-15.12-2.95-14.53-12.08.58-8.99,7.8-13.72,16.19-14.46,52.24-4.59,104.54-8.74,156.66.89,7.52,1.39,16.9,3.87,17.59,13.2.79,10.53-9.33,11.07-16.63,13.16-25.8,7.42-52.33,1.69-78.11,4.68Z" style="fill:#dd787f; stroke-width:0px;"/><path d="M2857.62,941.47c-19.59-.04-39.59,8.04-54.16-16.96-7.01-12.03-21.64-.98-29.16,10.15-4.65,6.87-7.58,18.45-16.29,17.82-9.57-.7-10.27-12.65-13.13-20.73q-13.32-37.69,27.96-37.69c6.12,0,12.3-.53,18.35.1,16.44,1.73,25.8-1.76,16.86-20.61-4.06-8.55.89-13,7.78-16.45,13.93,28.13,27.86,56.26,41.79,84.39Z" style="fill:#b5aeb5; stroke-width:0px;"/><path d="M3973.57,845.86c-7.78-2.29-29.35,8.44-32.09-7.79-3.09-18.29,20.9-16.4,33.23-22.05,20.4-9.34,42.94-6.41,64.69-5.6,8.53.32,20.61,2.76,21.47,11.67,1.03,10.71-11.21,15.91-20.06,17.25-20.62,3.1-40.94,9.71-67.24,6.52Z" style="fill:#d87b86; stroke-width:0px;"/><path d="M2963.32,1041.54c-21.43-3.63-42.89-7.09-64.26-11.06-2.98-.55-8.1-3.93-7.88-5.31,4.54-28.56-19.79-45.09-27.89-68.25-.55-1.56-.06-3.48-.06-5.24,33.36,29.95,66.72,59.9,100.09,89.86Z" style="fill:#b5aeb5; stroke-width:0px;"/><path d="M2878.92,425.1c-1.75,0-3.65.46-5.22-.06-11.83-3.95-30.35,15.69-33.91-1.51-2.97-14.38,11.63-31.28,23.98-43.88,5.06-5.16,8.32-4.18,12.07,1.73,4.3,6.78,10.14,12.11,19.02,12.16-6.51,9.91-5.39,23.69-15.94,31.56Z" style="fill:#b5aeb5; stroke-width:0px;"/><path d="M3316.25,1162.49c-1.75-6.85-3.5-13.7-5.25-20.55,7.36.75,15.18-2.55,22.57,2.45-2.9,9.08-9.73,13.94-17.31,18.1Z" style="fill:#b5aeb5; stroke-width:0px;"/><path d="M3263.57,1241.83c2.25-9.29-6.38-22.9,10.5-26.36.35,10.32-2.21,19.48-10.5,26.36Z" style="fill:#b5aeb5; stroke-width:0px;"/><path d="M3474.26,1468.65c-7.02,12.4-14,12.31-20.94-.07,6.98.02,13.96.05,20.94.07Z" style="fill:#b5aeb5; stroke-width:0px;"/><path d="M3063.5,1088.9c-11.74,6.57-12.13-4.49-15.94-10.25,7.66-.23,12.75,3.53,15.94,10.25Z" style="fill:#b5aeb5; stroke-width:0px;"/><path d="M2857.75,1021.25c1.02,8.18-2.25,14.56-10.95,17.57-10.25,3.55-11.19-5.78-14.3-11.1-7.2-12.29-16.87-21.84-28.95-29.18-4.63-2.81-8.95-6.5-6.65-12.48,2.03-5.29,7.25-6.7,12.68-7.63,24.97-4.29,49,16.58,48.17,42.82Z" style="fill:#b5aeb5; stroke-width:0px;"/><path d="M2989.4,1098.76c-11.22-5.19-22.6-5.1-35.02-.88-12.56,4.27-18.41-7.23-25.02-14.92-3.71-4.32-3.56-10.15.39-14.44,7.7-8.39,17.82-7.58,26.6-3.4,12.17,5.8,24.36,8.8,37.81,8.38,8.72-.27,16.25,3.68,15.3,13.67-1.09,11.5-10.01,12.76-20.07,11.59Z" style="fill:#b5aeb5; stroke-width:0px;"/><path d="M2876.82,1047.98c-1.4,4.41-3.83,7.84-8.89,7.48-4.8-.34-7.88-3.38-7.93-8.21-.05-4.58,3.99-5.08,7.34-5.28,4.4-.26,8.6.41,9.48,6Z" style="fill:#b5aeb5; stroke-width:0px;"/><path d="M3818.07,827.21c0,2.63.07,5.26-.01,7.89-.4,13.12,1.13,29.92-16.84,30.12-18.4.2-16.74-16.65-16.75-29.76-.04-54.69-20.46-104.4-37.81-154.85-1.14-3.3-3.06-6.35-4.08-9.68-3.37-10.96-8.5-23.63,6.37-29.24,15.59-5.87,21.41,6.26,26.14,18.32,13.77,35.1,25.94,70.67,34.33,107.52,4.49,19.71,8.01,39.45,8.66,59.67Z" style="fill:#f2eaec; stroke-width:0px;"/><path d="M3433.72,1099.83c-21.5-.13-41.56-25.39-38.16-46.79,1.68-10.55,6.35-10.66,14.16-6.92,11.62,5.56,23.46,10.69,34.98,16.45,7.81,3.91,20.42,2.2,21.21,14.85.49,7.87-21.78,22.47-32.18,22.41Z" style="fill:#d44f47; stroke-width:0px;"/><path d="M3798.25,877.33c12.78.23,17.33,8.84,17.47,18.83.16,11.5-8.95,17.33-19.02,17.28-9.47-.05-15.9-7.31-15.85-17.2.05-11.11,7.11-17.02,17.4-18.91Z" style="fill:#df9d98; stroke-width:0px;"/></svg>